<?xml version="1.0" encoding="UTF-8"?>
<svg id="_Слой_2" data-name="Слой 2" xmlns="http://www.w3.org/2000/svg" viewBox="0 0 1254 1254">
  <defs>
    <style>
      .cls-1 {
        fill: #65ccb9;
      }

      .cls-2 {
        fill: #539cee;
      }

      .cls-3 {
        fill: #fff;
      }

      .cls-4 {
        fill: #1a1b21;
      }

      .cls-5 {
        fill: #6f67eb;
      }

      .cls-6 {
        fill: #56a6cd;
      }
    </style>
  </defs>
  <rect class="cls-4" width="1254" height="1254" rx="170.81" ry="170.81"/>
  <g>
    <path class="cls-3" d="M1119.09,565.65l-154.84-148.87c.23-1.35.37-2.73.37-4.14v-170.6c0-13.72-11.12-24.85-24.85-24.85h-60.34c-13.72,0-24.85,11.12-24.85,24.85v69.31l-185.9-178.74c-23.03-22.14-60.36-22.14-83.39,0l-450.4,433.04c-20.22,19.44-5.9,52.67,22.69,52.67h42.55c-.28,2.82-.43,5.67-.43,8.56v425.31c0,47.39,38.42,85.81,85.81,85.81h683.37c47.39,0,85.81-38.42,85.81-85.81v-425.31c0-2.89-.15-5.74-.43-8.56h42.12c28.59,0,42.91-33.23,22.69-52.67ZM977.04,618.32v406.62c0,18.51-15,33.51-33.51,33.51H309.02c-18.51,0-33.51-15-33.51-33.51v-345.63h-.03v-131.61h.01c.01-5.18,2.05-10.46,6.61-14.76l315-296.88c25.79-24.89,31.74-24.99,58.32,0l315,296.88c4.56,4.3,6.59,9.58,6.61,14.76h.01v70.61Z"/>
    <rect class="cls-2" x="412.12" y="538.14" width="185.41" height="185.41" rx="21.79" ry="21.79"/>
    <rect class="cls-1" x="655.82" y="538.14" width="185.41" height="185.41" rx="21.79" ry="21.79"/>
    <rect class="cls-5" x="411.91" y="780.03" width="185.41" height="185.41" rx="21.79" ry="21.79"/>
    <rect class="cls-6" x="655.6" y="780.03" width="185.41" height="185.41" rx="21.79" ry="21.79"/>
  </g>
</svg>